# xmcd
# 
# Track frame offsets:
#     150
#     8290
#     35443
#     61026
#     83944
#     109068
#     140216
#     181282
#     213186
#     232988
#     260062
#     288208
#     318327
# 
# Disc length: 4615
# 
# Revision: 2
# Processed by: cddbd v1.5.2PL0 Copyright (c) Steve Scherf et al.
# Submitted via: fre:ac v1.0.31
# 
DISCID=aa12050d
DTITLE=Hard Rock - The Dream Of The Electric Guitars
DYEAR=2008
DGENRE=Rock/Pop
TTITLE0=Michael Thompson - Intro
TTITLE1=Steve Vai - For The Love Of God
TTITLE2=Joe Satriani - Cryin'
TTITLE3=Neal Schon - Father
TTITLE4=Mo Foster featuring Gary Moore - The Light In Your Eyes
TTITLE5=Andy Timmons - Cry For You
TTITLE6=Pekka Pohjola featuring Markku Kanerva - Rita (Edited Version)
TTITLE7=Steve Lukather - Song For Jeff (Dedicated to Jeff Porcaro)
TTITLE8=Marty Friedman - Lust For Life
TTITLE9=Mike Stern - Common Ground
TTITLE10=Derek Sherinian featuring Steve Lukather - Stony Days
TTITLE11=Tim Pierce - One Desire
TTITLE12=Michael Thompson - Dark
EXTD=
EXTT0=
EXTT1=
EXTT2=
EXTT3=
EXTT4=
EXTT5=
EXTT6=
EXTT7=
EXTT8=
EXTT9=
EXTT10=
EXTT11=
EXTT12=
PLAYORDER=
